<?xml version="1.0" encoding="UTF-8" standalone="no"?><svg height="101.27209mm" viewBox="0 0 132.29167 101.27209" width="132.29167mm" xmlns="http://www.w3.org/2000/svg"><path d="m361.5408 38.813397c-.55415-.01972-1.34099.101338-2.36138.363-2.03901.522648-6.04244 2.779168-13.6621 7.70074-2.19709 1.419051-5.79201 3.629071-7.9891 4.911865s-4.63662 2.735529-5.42168 3.228524c-1.55413.976151-7.14898 3.834811-7.14898 3.652597 0-.0619.26553-.715769.59146-1.452043.57191-1.294258.96622-1.896087 4.29382-6.328562 4.8098-6.405655 6.2618-8.13038 6.12859-8.798042-.0711-.366925-.2904-.780331-.53728-1.085348-.98576-1.217254-3.31518-.287088-7.8923 2.778324-7.61788 5.101931-14.39476 10.003831-19.26761 13.932467-3.04609 2.455662-6.68985 5.191315-10.02545 7.81319-4.32314 3.397984-10.59204 7.714415-11.4215 7.27164-.86853-.46416-.76196-1.711421-.45824-2.850366.13942-.521112.21935-.982544.17495-1.025715-.0444-.04316-.56215-.0053-1.15361.08312-.98842.148149-1.0941.230064-1.31257 1.016051-.13055.470244-.238 1.56109-.23889 2.424037 0 1.415927.0622 1.616541.6181 2.055978.79571.625939 2.48394.645041 4.05938.04636 2.22106-.844031 6.62857-3.959796 16.24728-11.486423 17.26856-13.512861 19.24541-15.113344 24.34472-18.07288 1.08966-.632725 3.71303-2.444872 4.22278-2.516282.58879-.08268-1.43868 3.320227-2.25037 4.202376-1.69622 1.843664-5.05313 6.506762-7.47491 10.383144-.96178 1.539748-1.20955 2.540295-.8561 3.460737.19804.517125.64119.470528 2.79654-.294156 2.37915-.84405 3.23347-1.284623 10.92418-5.633761 3.17485-1.795371 16.40447-10.005758 18.44526-11.447383 1.94931-1.377089 4.9208-2.854451 4.61264-2.293722-.30727.558304-2.71217 2.978799-5.55489 5.590175-1.26639 1.163188-2.81341 2.735084-3.73612 3.687435-2.13759 2.206264-2.76368 3.675597-1.41381 4.187687.98754.374713 3.29386-.62325 6.19253-2.759969 1.09943-.810286 2.10118-1.58139 2.23439-1.579623.13321.0027.67316.265845 1.19001.452056 1.65271.595408 2.62337.460492 4.39596-.610381.88274-.533288 1.60652-.955708 1.73174-1.17484.1643-.289112.46091-.256289.73533-.204683.77883.146408.24333.385512.59767.631029.43604.301678.97954.778333 1.15627.778333.5284 0 3.73345-1.923715 5.19611-3.118386 1.79302-1.464475 2.7175-1.524312 3.54252-.229921.30905.484674 1.28859 1.578006 2.17666 2.430005 1.90048 1.823008 5.27782 3.604987 8.66404 4.571325 2.44308.697198 7.79194 1.627845 10.69061 1.860014 11.23233.899741 13.62391 1.250902 15.21445 2.232675.92804.572807.94669.800633.13232 1.555752-1.14383 1.060375-3.39066 1.89876-10.88243 4.061935-7.99887 2.309326-8.63828 2.468938-31.25037 7.788401-29.29839 6.8924-45.13716 11.017097-57.39167 14.945776-8.19868 2.628411-10.97124 3.606585-16.38138 5.72646-5.41013 2.119862-7.00511 2.621747-6.18276 3.344167.54706.480739 2.51414.174925 5.82309-.525925 1.80901-.383159 6.83105-1.327881 11.16041-2.099117 4.32935-.771221 14.74466-2.775956 23.14493-4.454758 19.37152-3.871497 62.5265-12.583796 69.3016-13.990769 2.83562-.588854 5.47852-1.071105 5.87371-1.071575.90317 0 2.15446-.746823 2.36494-1.40937.22113-.698042-.47512-1.409345-1.38007-1.409345-.39519 0-2.15002.315942-3.89863.701693-6.89233 1.520433-55.67147 11.595318-64.86035 13.396455-5.36307 1.0512-15.08302 3.016771-21.60058 4.368026-6.51756 1.351265-13.24205 2.781069-13.80242 2.911883.28418-.364279 15.83344-5.038069 20.59972-6.38134 1.74506-.491817 5.86838-1.536933 9.16402-2.32262 3.29563-.785668 9.32298-2.260598 13.39301-3.277635 4.07093-1.017038 13.69319-3.339196 21.38301-5.160606 26.22299-6.211549 41.10708-10.285295 45.08298-12.339096 3.41819-1.765248 4.56824-3.444459 3.28498-4.929298-1.7273-1.998242-5.51937-2.492925-13.00582-3.19182-10.3114-.962599-15.38052-1.976325-19.03227-3.805842-2.67754-1.34146-5.50871-3.592465-7.03265-5.590619-.48932-.641277-1.07368-1.165657-1.29925-1.165657-.62076 0-2.52923 1.083839-4.11443 2.336367-2.96972 2.346713-4.37376 2.701445-4.7059 1.188614-.0888-.387839-.27885-.701639-.43071-.699854-.59235.0053-1.61718.747082-4.32225 2.360247-1.61008.960246-2.16512.762774-3.55051-.023-.95912-.544167-.84811-.683105-1.84986.08721-.47423.364625-1.6305 1.213169-2.53544 1.931611-.90495.718441-1.93511 1.461278-2.29123 1.650286-.59234.314129-.64563.308463-.64563-.06376 0-.48495 5.28492-5.758527 6.84349-6.828787 1.15449-.792764 4.30271-4.211913 4.71832-5.124345.37211-.815321.0977-1.239349-.82502-1.272128zm25.9104 40.629445c-1.35254 0-3.06474 1.240822-3.91374 2.45249-.6474.923569-.85965 1.715418-.85965 3.065146 0 1.401661.22202 2.126729.86676 3.172088.50442.817123.95379 1.337063 1.95109 1.91305 1.13673.655956 1.82499.711247 2.8072.64362 1.85429-.127652 3.31606-.961 4.19703-2.646614.47956-.917937.68648-1.798978.62609-2.934813-.0622-1.149208-.22646-1.821533-.968-2.94539-1.21577-1.842951-2.74326-2.719577-4.70678-2.719577zm.5284 2.152366c.63408.01786 1.26728.190821 1.78147.494258.97866.577815 1.59143 2.009484 1.59143 3.340953 0 .557985-.19715 1.216668-.59767 1.779724-.40052.562922-.91827 1.055394-1.46355 1.28315-.56215.23492-1.03016.350963-1.5035.315725-.47423-.03534-.93426-.218286-1.49552-.536013-2.38003-1.347196-2.46795-5.139433-.0941-6.320294.60833-.302282 1.18824-.374261 1.78147-.357503zm-20.20808 2.787951c-1.2957.0223-3.21127.430938-4.66771 1.205603-1.47775.785837-2.7104 2.183709-3.3951 3.52499-.6847 1.34129-.74243 3.435126-.16607 4.842097.52485 1.282652 2.2637 1.95581 3.53808 2.430476 1.59764.594939 4.36665-.07504 5.61351-1.124823.8259-.695012 1.63405-1.999937 1.6154-3.117008-.009-.724924-.74509-1.997985-1.37918-2.337308-.95112-.509009-3.89597-.856698-5.83374.216617-.67227.372217-.41829 1.55388.51685 1.212467 2.73793-.999391 3.97324-.380742 4.65439.462607.36766.45908.47068.873472.0178 1.608975-.72378 1.173409-1.47864 1.683694-3.25123 1.62002-2.79832-.100494-4.36043-1.320085-4.0203-3.587882.40318-2.687954 2.95994-5.223483 6.34438-5.470837 1.42536-.104162 1.41026-.09474 1.80634-.827443.24866-.459337-.38542-.67584-1.39338-.658551zm-20.49138 5.220267c-2.27258.0036-7.09481 1.542315-7.76264 2.790252-.23001.430281-.20781.974605.11723 2.786123.59323 3.312038 1.02483 4.699624 1.65536 5.330419.95291.95308 3.09671.6569 6.51757-.899508 1.58609-.721567 2.0621-.828741 1.30457-1.545182-.42272-.399544-.8188-.35936-3.38355.430021-1.95198.600762-2.41645.673343-2.96527.441478-.86321-.365238-.72733-1.365189-.93426-2.264352.87653-.249603 1.30902-.351224 1.96176-.526371 2.98214-.800187 3.5363-1.074424 3.4466-1.705836-.071-.485845-.071-.630628-1.16959-.572734-.66605.03499-1.92267.370709-2.65.620932-1.56923.539841-2.00438.577556-2.01326-.492871-.009-1.063682.8561-1.420135 2.96172-1.949072 2.04967-.514859 4.00787-1.30464 4.08779-1.867818.0533-.407458-.4165-.576734-1.17403-.575481zm-19.68767 3.280849c-.33658-.008-.7593.07646-1.00352.206985-.45736.244715-.49111.397943-.35345 1.600721.0799.731318.25043 1.858186.37121 2.504355.12078.646135.32859 2.279548.4618 3.629614.14386 1.45335.36144 2.53012.53462 2.63973.476.30236 1.5035.21789 1.809-.14869.22202-.26756.18028-1.0879-.19449-3.818245-.26198-1.912482-.56126-4.164492-.66516-5.004556-.17584-1.429484-.22913-1.532188-.82236-1.600731-.0444-.0053-.0897-.008-.13765-.0091zm-18.34224 2.280836c-3.4324.13107-4.03718.280719-6.13658 2.018359-.78861.65322-.73533.890654-.73533 1.905909 0 2.699821 4.24677 8.263631 5.86483 7.749841.90761-.28819 1.94399-3.62841 2.06388-7.469434l.0799-2.555284 1.85873.02984c2.13759.03428 2.95018.124374 3.8569 1.660384.79216 1.342003.0444 4.083404-1.34188 6.424034-1.928 3.24427-5.67655 7.44953-9.664 9.46345-4.15262 2.09765-5.96873 2.59984-8.30081 1.3644-1.76104-.93265-2.3898-.79307-2.05855.45203.28951 1.0893 1.10032 1.01699 2.54255 1.39788 1.56834.41413 2.95639.47731 4.26897.20241 1.87649-.393 4.71832-1.68804 6.36214-2.79828 4.90838-3.31449 8.98641-8.86038 10.04765-13.51465.25754-1.12925.6483-2.379241.11812-3.492884-1.3552-2.848784-4.84533-2.84778-6.49536-2.832514-.83657.008-1.49641-.02886-2.33119-.0053zm-1.40405 2.11799c.8046.05213.68648.429498.77707 1.13676.25132 1.962059.32858 3.576869-.37832 5.766849-.32592 1.00953-.59412 1.07971-1.47509.38685-1.28326-1.00914-3.35602-5.840476-2.5834-6.368934.90583-.618782 2.46795-.998769 3.65974-.921525zm42.76334 10.655269c-.70246.005-1.3845.0702-1.97862.19641-2.18999.46465-5.20499 2.58727-7.22536 5.08626-2.03013 2.51078-2.71128 3.8013-3.54429 6.71589-.57991 2.02997-.68559 2.81938-.68559 5.11837 0 3.55365.28063 4.94949 1.54524 7.67275.51331 1.10603.88275 2.05678 1.16604 2.13263.71223.19092 0-1.11409-.13587-2.32721-.73089-6.32455.99286-13.76631 4.14907-17.86775 1.22909-1.59738 2.97326-3.02272 3.89952-3.6807 1.37918-.97917 2.88091-1.35126 5.23519-1.87423.95024-.21107 1.91912-.14175 1.78769-.43312-.12167-.26879-.69891-.38207-1.11631-.45894-.99997-.18414-1.92712-.28983-3.09671-.28036zm13.63191 1.9729c1.77437 1.59217 2.04701 2.01857 2.73882 4.15601 1.58787 4.90334.93336 9.89125-1.98662 15.16011-1.28504 2.31914-3.30718 4.5155-5.94209 7.15005-2.02481 2.02444-4.72899 3.81541-3.56828 3.70076 1.29304-.1277 3.4324-1.64248 5.23697-2.9798 2.69085-1.9941 5.44388-4.96477 6.74757-7.22348 1.96619-3.40542 2.54344-6.59717 2.75125-9.18167.2158-2.6752-.4325-5.93882-1.62429-8.18355-1.14472-2.15618-2.34362-3.04241-3.73079-3.77925-.33125-.17594-2.56475-1.025-3.03987-.81552-.70247.30966.89162.62786 2.41733 1.99634zm-7.25555 8.39098c-.92448-.0108-1.85696.42539-2.5985 1.25835-.66072.74258-.76374 1.02915-.76374 2.12347 0 1.46233.38986 2.34447 1.41914 3.21062.97244.81804 2.62248.85355 3.76809.0812 1.01862-.68648 1.75128-2.36837 1.53459-3.5227-.22468-1.19881-1.07368-2.33957-2.12427-2.85405-.39697-.19449-.81525-.292-1.23531-.29691zm-5.65169 1.04773c-.009.00023-.0178.003-.0355.006-.19005.0729-.91294.27949-1.37296.27949h-.83657s.10036 1.21385.15186 1.82101c.0888 1.0014.22025 2.58767.30017 3.52454.0622.67509.0444 1.25382.0968 1.69387 1.21666.0843 1.51949-.21989 2.55055-.27948-.0266-.43633-.0799-1.04399-.11812-1.55896-.26908-3.55647-.40407-5.49462-.73887-5.48688zm5.76714.99081c.58968 0 .81525.14841 1.11631.72924.31171.60398.3277.84727.0915 1.41852-.15719.37941-.47601.79178-.70779.91601-.59856.32045-.78062.28798-1.47864-.26113-1.23887-.97413-.59945-2.80264.97865-2.80264z" fill="#252121" stroke-width=".234969" transform="translate(-283.83893 -38.811325)"/></svg>